HIERARCHY
ROOT Hips
{
	OFFSET -3.958830 18.904000 13.208200
	CHANNELS 6 Xposition Yposition Zposition Zrotation Yrotation Xrotation 
	JOINT LHipJoint
	{
		OFFSET 0.000000 0.000000 0.000000
		CHANNELS 3 Zrotation Yrotation Xrotation
		JOINT LeftUpLeg
		{
			OFFSET 1.800000 -1.400000 0.085000
			CHANNELS 3 Zrotation Yrotation Xrotation
			JOINT LeftLeg
			{
				OFFSET 2.215000 -6.000000 0.000000
				CHANNELS 3 Zrotation Yrotation Xrotation
				JOINT LeftFoot
				{
					OFFSET 2.500000 -6.900000 0.000000
					CHANNELS 3 Zrotation Yrotation Xrotation
					JOINT LeftToeBase
					{
						OFFSET 0.200000 -0.500000 1.950000
						CHANNELS 3 Zrotation Yrotation Xrotation
						End Site
						{
							OFFSET 0.000000 0.000000 0.000000
						}
					}
				}
			}
		}
	}
	JOINT RHipJoint
	{
		OFFSET 0.000000 0.000000 0.000000
		CHANNELS 3 Zrotation Yrotation Xrotation
		JOINT RightUpLeg
		{
			OFFSET -1.800000 -1.400000 0.085000
			CHANNELS 3 Zrotation Yrotation Xrotation
			JOINT RightLeg
			{
				OFFSET -2.215000 -6.000000 0.000000
				CHANNELS 3 Zrotation Yrotation Xrotation
				JOINT RightFoot
				{
					OFFSET -2.500000 -6.900000 0.000000
					CHANNELS 3 Zrotation Yrotation Xrotation
					JOINT RightToeBase
					{
						OFFSET -0.200000 -0.500000 1.950000
						CHANNELS 3 Zrotation Yrotation Xrotation
						End Site
						{
							OFFSET 0.000000 0.000000 0.000000
						}
					}
				}
			}
		}
	}
	JOINT LowerBack
	{
		OFFSET 0.000000 0.000000 0.000000
		CHANNELS 3 Zrotation Yrotation Xrotation
		JOINT Spine
		{
			OFFSET -0.087000 1.940000 -0.288900
			CHANNELS 3 Zrotation Yrotation Xrotation
			JOINT Spine1
			{
				OFFSET 0.000000 1.950000 0.060000
				CHANNELS 3 Zrotation Yrotation Xrotation
				JOINT Neck
				{
					OFFSET 0.000000 0.000000 0.000000
					CHANNELS 3 Zrotation Yrotation Xrotation
					JOINT Neck1
					{
						OFFSET 0.000000 1.600000 0.340000
						CHANNELS 3 Zrotation Yrotation Xrotation
						JOINT Head
						{
							OFFSET 0.000000 1.667000 -0.240000
							CHANNELS 3 Zrotation Yrotation Xrotation
							End Site
							{
								OFFSET 0.000000 0.000000 0.000000
							}
						}
					}
				}
				JOINT LeftShoulder
				{
					OFFSET 0.000000 0.000000 0.000000
					CHANNELS 3 Zrotation Yrotation Xrotation
					JOINT LeftArm
					{
						OFFSET 2.700000 1.550000 -0.730000
						CHANNELS 3 Zrotation Yrotation Xrotation
						JOINT LeftForeArm
						{
							OFFSET 5.450000 0.000000 0.000000
							CHANNELS 3 Zrotation Yrotation Xrotation
							JOINT LeftHand
							{
								OFFSET 3.450000 0.000000 0.000000
								CHANNELS 3 Zrotation Yrotation Xrotation
								JOINT LeftHandIndex1
								{
									OFFSET 0.750000 0.000000 0.000000
									CHANNELS 3 Zrotation Yrotation Xrotation
									End Site
									{
										OFFSET 0.000000 0.000000 0.000000
									}
								}
							}
						}
					}
				}
				JOINT RightShoulder
				{
					OFFSET 0.000000 0.000000 0.000000
					CHANNELS 3 Zrotation Yrotation Xrotation
					JOINT RightArm
					{
						OFFSET -2.700000 1.550000 -0.730000
						CHANNELS 3 Zrotation Yrotation Xrotation
						JOINT RightForeArm
						{
							OFFSET -5.450000 0.000000 0.000000
							CHANNELS 3 Zrotation Yrotation Xrotation
							JOINT RightHand
							{
								OFFSET -3.450000 0.000000 0.000000
								CHANNELS 3 Zrotation Yrotation Xrotation
								JOINT RightHandIndex1
								{
									OFFSET -0.750000 0.000000 0.000000
									CHANNELS 3 Zrotation Yrotation Xrotation
									End Site
									{
										OFFSET 0.000000 0.000000 0.000000
									}
								}
							}
						}
					}
				}
			}
		}
	}
}
MOTION
Frames: 10
Frame Time: 0.016667
-0.652790 18.246220 -6.292400 8.898956 -16.794053 -8.316769 -15.822834 10.300142 6.070823 17.774461 -2.881066 -37.467229 -58.536380 43.547906 39.824013 2.528614 14.512784 0.106677 0.335560 0.295170 0.026270 18.050563 -9.606802 1.440052 -15.434417 0.203400 -5.973185 4.669509 -4.174583 6.379361 -0.125614 -3.952297 3.092790 0.308570 0.430580 0.025800 -2.500227 -0.420019 -8.092126 -14.551767 10.150476 13.135406 5.861907 9.561864 15.744776 1.307698 1.459083 -13.713365 3.369315 -10.529418 26.268999 3.415550 -11.979760 -7.533300 -0.812412 -22.254828 6.184469 -8.861305 -11.100970 -8.706491 103.818689 -39.102329 -54.030608 -3.595874 2.992378 0.015640 0.189810 -0.246820 0.257080 -0.863342 30.337911 8.182460 -6.206101 19.698398 -16.057011 -80.833189 31.026705 -29.773659 2.421523 -1.786659 -0.151040 0.345460 -0.023640 0.084380 
-0.697520 18.175890 -6.273240 9.215794 -17.475536 -8.236046 -15.802191 10.222437 6.092601 17.692292 -2.632641 -38.451874 -58.872955 42.455299 38.410402 2.504375 14.313437 0.159943 0.318590 0.290660 -0.013730 18.079307 -9.657168 1.433494 -15.403533 0.262636 -5.638736 4.702407 -4.238541 6.673637 -0.119106 -4.012108 3.080001 0.302050 0.454060 0.023740 -2.589016 -0.236602 -8.076777 -14.725790 10.488114 12.599555 5.570136 9.883712 15.820039 1.051565 1.644333 -13.746838 3.773507 -10.069819 26.163919 4.527260 -12.017360 -6.890870 -0.379842 -22.105525 6.222246 -9.538158 -10.833501 -8.861906 103.456504 -38.615889 -53.198526 -3.600363 3.038227 -0.017220 0.200230 -0.266600 0.264310 -0.790753 30.073065 8.240500 -3.825351 20.462306 -15.897339 -81.458007 30.023822 -29.871814 2.436146 -1.812460 -0.140030 0.337490 -0.015330 0.107200 
-0.777630 18.041540 -6.247560 9.207515 -18.600448 -7.933570 -15.811378 10.041973 6.256521 18.115471 -2.243791 -41.218808 -60.256489 41.137918 36.275364 2.403177 14.066202 0.214543 0.327640 0.308630 -0.027270 18.110840 -9.671645 1.388011 -14.522430 0.325838 -4.996082 4.817018 -4.361093 7.371031 -0.126282 -4.076618 3.077203 0.326410 0.471310 0.012560 -2.657168 -0.017323 -8.107380 -14.228000 10.914065 12.102945 5.005915 10.331683 15.597006 1.186917 1.768081 -13.666792 4.097169 -9.575425 25.727969 4.691210 -11.503200 -6.944590 -1.185574 -22.061654 6.171688 -10.431947 -10.829354 -8.960587 102.279729 -37.627856 -50.919334 -3.614095 3.043441 -0.014450 0.214050 -0.281850 0.276490 -0.252571 29.961199 8.195388 -1.734616 21.166608 -15.699956 -80.856357 28.216980 -28.696977 2.411191 -1.848941 -0.158610 0.356080 -0.012230 0.102900 
-0.877940 17.870860 -6.231280 9.290221 -19.719617 -8.019673 -15.814738 9.911072 6.386817 17.766499 -2.265347 -43.738826 -59.683534 39.002988 34.874820 2.326090 13.791504 0.273712 0.369190 0.363790 -0.002270 18.137793 -9.748767 1.320236 -13.405577 0.318693 -4.076198 4.463463 -4.478806 8.861041 -0.148029 -4.145040 3.053464 0.357630 0.458460 0.011490 -2.715196 0.207290 -8.110627 -13.847720 11.291835 11.966310 4.348380 10.854793 15.792324 1.437079 1.745928 -13.756537 4.276912 -9.202522 25.369384 4.929640 -11.134250 -7.135110 -1.623167 -22.206925 6.220903 -11.499031 -10.144748 -9.544555 99.923706 -36.555836 -47.769809 -3.605617 3.094627 -0.032880 0.207420 -0.273380 0.290930 -0.258265 30.504199 8.112280 -0.044716 21.859404 -16.068235 -78.801172 25.021411 -26.017937 2.470582 -1.934092 -0.140150 0.349590 -0.043430 0.111430 
-0.974490 17.679990 -6.214160 9.538029 -21.408569 -8.556090 -15.808030 9.845232 6.414735 16.933935 -2.092129 -45.278931 -59.141155 35.902191 32.282585 2.199903 13.339876 0.391918 0.354860 0.358080 -0.051080 18.151268 -9.839532 1.318724 -12.723892 0.355590 -2.684967 4.766667 -4.779727 10.218185 -0.170111 -4.334080 2.999148 0.359320 0.503630 0.011950 -2.768425 0.409643 -8.128813 -13.096748 11.615961 12.186646 3.535505 11.688618 16.540492 1.511136 0.947134 -14.053530 3.238355 -9.026230 25.173420 5.893810 -11.864130 -7.133770 -1.454547 -22.422113 6.264327 -13.552967 -9.594881 -10.471163 97.720154 -34.457417 -44.410800 -3.634620 3.166336 -0.057360 0.218540 -0.296910 0.308290 -0.352507 31.961258 8.286550 0.832918 21.490538 -17.285626 -76.508720 21.985122 -23.290355 2.563759 -1.990650 -0.140010 0.369750 -0.025350 0.142330 
-1.058690 17.493820 -6.203170 9.403675 -23.647625 -10.001010 -15.780169 9.907048 6.319468 15.950765 -1.855610 -44.925508 -56.159703 32.669428 30.876163 2.021216 12.829194 0.500125 0.360940 0.374170 -0.031960 18.139898 -10.052240 1.382651 -11.944742 0.313206 -0.638839 4.940246 -5.199951 12.171266 -0.238885 -4.568850 2.926244 0.364690 0.483340 -0.008650 -2.783136 0.715326 -8.213331 -10.710009 11.586207 13.899176 1.516178 13.015010 17.575635 2.264489 -0.079615 -14.741783 1.928483 -9.584029 25.738363 5.781390 -12.466590 -8.562610 -2.675155 -23.805733 6.348973 -13.381380 -8.355738 -12.049201 94.170131 -32.337954 -40.182555 -3.645926 3.171725 -0.032010 0.189420 -0.268670 0.303060 -0.199370 35.345812 8.497243 0.912444 20.335197 -19.882235 -73.692417 18.583812 -20.058381 2.735671 -1.981904 -0.145500 0.403500 -0.033860 0.141900 
-1.153020 17.301460 -6.182350 8.307824 -26.432032 -11.351214 -15.739203 10.052996 6.085562 15.086048 -1.205686 -43.625652 -50.687905 29.194299 30.138339 1.769033 12.192282 0.622706 0.418420 0.469320 -0.073700 18.128311 -10.325962 1.500891 -10.298150 0.250070 1.624296 4.780059 -5.554268 14.859220 -0.315595 -4.917808 2.811879 0.432950 0.510110 -0.003800 -2.813962 1.118405 -8.306517 -7.315675 11.315915 15.042175 0.083994 14.739750 20.939577 3.209163 -2.147638 -16.187288 -0.355971 -9.571423 25.463773 6.720600 -13.462400 -9.416920 -1.725241 -25.485790 6.225797 -15.068206 -8.714744 -14.008698 91.221636 -29.199368 -36.900476 -3.691849 3.346402 -0.074200 0.192010 -0.283950 0.350040 -1.939353 40.629148 8.594713 0.568499 17.746872 -24.236170 -71.129478 13.177981 -16.065283 2.887503 -2.056844 -0.118640 0.416790 -0.046320 0.188640 
-1.270410 17.089880 -6.134680 7.314463 -29.351990 -11.333333 -15.628835 10.009853 6.010394 14.895567 -0.530869 -43.766925 -46.946188 26.931777 29.430290 1.610651 11.731166 0.756371 0.432790 0.515180 -0.161610 18.201325 -10.616046 1.643123 -8.454036 0.217033 2.900893 3.860408 -5.542017 16.963815 -0.345590 -5.163218 2.754106 0.474980 0.594170 -0.004460 -3.133563 1.742866 -8.509346 -3.090239 10.484915 14.802492 -2.148010 15.662272 22.878978 3.430517 -4.811868 -16.838091 -3.787573 -9.939651 24.589554 7.293960 -15.335830 -8.709420 -0.012372 -25.920029 5.654818 -16.603052 -11.028087 -14.630574 87.206158 -25.189759 -32.035011 -3.760242 3.509339 -0.165920 0.230270 -0.347660 0.411780 -3.251622 43.591666 8.550489 0.479698 16.489561 -26.762129 -68.657937 13.878581 -15.353023 2.902119 -2.086560 -0.099840 0.438680 -0.047610 0.262640 
-1.345730 16.893470 -6.083550 4.807298 -28.949991 -10.583435 -15.496589 9.992113 6.162023 14.400415 -1.519825 -45.191001 -44.256882 24.588017 29.208560 1.581203 11.207108 0.909959 0.355510 0.406780 -0.162770 18.286056 -10.716101 1.859980 -6.345100 0.015466 4.354001 4.490956 -6.094046 19.282669 -0.450660 -5.364890 2.702822 0.329420 0.504740 -0.013310 -3.415761 1.739000 -8.843024 1.255558 8.580317 17.585985 -3.838420 14.030324 19.313958 3.439903 -5.983432 -16.844419 -6.318342 -10.248278 25.680827 7.848250 -16.117770 -8.710410 -4.529820 -26.736543 7.074402 -16.860781 -7.092244 -15.154707 84.648002 -24.647970 -29.219790 -3.706072 3.474649 -0.111790 0.148390 -0.281500 0.384680 0.659218 43.828871 8.007029 -2.577728 15.886968 -23.798534 -63.468203 15.255474 -13.889447 3.077304 -2.047530 -0.060930 0.361550 -0.071770 0.260310 
-1.413080 16.740120 -6.040440 3.056012 -27.302602 -11.198494 -15.402672 10.223098 6.010316 12.056001 -3.058439 -44.665585 -40.528506 22.302957 29.683012 1.418970 10.580873 1.051319 0.365090 0.377110 -0.099320 18.299985 -10.790783 2.108696 -4.978466 -0.262933 6.647006 5.283061 -6.704228 20.730909 -0.594718 -5.641997 2.593777 0.268290 0.392950 -0.002660 -3.470417 1.482019 -8.982689 3.881467 7.424705 20.456191 -4.599102 13.334688 17.889949 4.010676 -6.111353 -17.259005 -7.094338 -11.068537 27.293321 8.040170 -16.713430 -10.366290 -9.088513 -27.356592 7.099343 -15.395585 -6.158226 -15.312076 82.532358 -24.556060 -27.586502 -3.664727 3.442972 -0.019190 0.064400 -0.203650 0.350880 3.779189 44.135508 9.031496 -4.525450 13.688098 -23.523556 -60.457427 14.645118 -12.445547 3.175479 -2.043227 -0.034020 0.304050 -0.092540 0.220400 
